<svg width="512" height="512" xmlns="http://www.w3.org/2000/svg">

 <g>
  <title>background</title>
  <rect fill="none" id="canvas_background" height="402" width="582" y="-1" x="-1"/>
 </g>
 <g>
  <title>Layer 1</title>
  <path fill="#ff3838" id="svg_1" d="m277.33203,384c0,11.78125 -9.55078,21.33203 -21.33203,21.33203s-21.33203,-9.55078 -21.33203,-21.33203s9.55078,-21.33203 21.33203,-21.33203s21.33203,9.55078 21.33203,21.33203zm0,0"/>
  <path fill="#ff3838" id="svg_2" d="m256,320c-8.83203,0 -16,-7.16797 -16,-16l0,-181.33203c0,-8.83203 7.16797,-16 16,-16s16,7.16797 16,16l0,181.33203c0,8.83203 -7.16797,16 -16,16zm0,0"/>
  <path fill="#ff3838" id="svg_3" d="m256,512c-141.16406,0 -256,-114.83594 -256,-256s114.83594,-256 256,-256s256,114.83594 256,256s-114.83594,256 -256,256zm0,-480c-123.51953,0 -224,100.48047 -224,224s100.48047,224 224,224s224,-100.48047 224,-224s-100.48047,-224 -224,-224zm0,0"/>
 </g>
</svg>